<?xml version="1.0" encoding="UTF-8" standalone="no"?>
<!-- Created with Inkscape (http://www.inkscape.org/) -->

<svg
   width="72pt"
   height="72pt"
   viewBox="0 0 25.4 25.4"
   version="1.1"
   id="svg5"
   xml:space="preserve"
   inkscape:version="1.2.2 (732a01da63, 2022-12-09)"
   sodipodi:docname="favicon.svg"
   inkscape:export-filename="favicon.png"
   inkscape:export-xdpi="96"
   inkscape:export-ydpi="96"
   xmlns:inkscape="http://www.inkscape.org/namespaces/inkscape"
   xmlns:sodipodi="http://sodipodi.sourceforge.net/DTD/sodipodi-0.dtd"
   xmlns="http://www.w3.org/2000/svg"
   xmlns:svg="http://www.w3.org/2000/svg"><sodipodi:namedview
     id="namedview7"
     pagecolor="#ffffff"
     bordercolor="#666666"
     borderopacity="1.0"
     inkscape:showpageshadow="2"
     inkscape:pageopacity="0.0"
     inkscape:pagecheckerboard="true"
     inkscape:deskcolor="#d1d1d1"
     inkscape:document-units="mm"
     showgrid="false"
     inkscape:zoom="8.2041846"
     inkscape:cx="50.340164"
     inkscape:cy="50.888665"
     inkscape:window-width="1920"
     inkscape:window-height="1001"
     inkscape:window-x="-9"
     inkscape:window-y="-9"
     inkscape:window-maximized="1"
     inkscape:current-layer="layer1" /><defs
     id="defs2" /><g
     inkscape:groupmode="layer"
     id="layer2"
     inkscape:label="Layer 2"
     style="display:none;opacity:1;fill:#000000;stroke:#000000"><rect
       style="opacity:1;fill:#000000;fill-opacity:1;stroke:#000000;stroke-width:0.412001;stroke-linecap:square;stroke-linejoin:round;stroke-dasharray:none"
       id="rect3294"
       width="34.120293"
       height="29.540817"
       x="-4.9019699"
       y="-2.0704086"
       ry="8.0245972" /></g><g
     inkscape:label="Layer 1"
     inkscape:groupmode="layer"
     id="layer1"
     transform="translate(-102.21838,-118.6373)"
     style="display:inline"><path
       style="opacity:1;fill:#cccccc;stroke:#cccccc;stroke-width:0.419539;stroke-linecap:round;stroke-linejoin:round;stroke-dasharray:none"
       d="m 105.09347,125.32278 v 12.22279 c 2.04216,0 4.5554,0.45928 6.32362,-0.92971 2.93084,-2.30234 2.99755,-8.65362 -0.21745,-10.71436 -1.91606,-1.22821 -6.10617,-0.57872 -6.10617,-0.57872"
       id="path12022"
       sodipodi:nodetypes="ccccc" /><path
       style="opacity:1;fill:#cccccc;stroke:#cccccc;stroke-width:0.597564;stroke-linecap:round;stroke-linejoin:round;stroke-dasharray:none"
       d="m 102.88282,123.41647 v 15.96698 c 3.17147,0 7.07456,0.59996 9.82059,-1.21451 4.55161,-3.00762 4.65519,-11.30447 -0.3377,-13.99647 -2.97563,-1.60445 -9.48289,-0.756 -9.48289,-0.756 m 3.38683,13.41226 v -10.85755 c 1.4321,0 3.13084,-0.22373 4.38802,0.55638 2.9022,1.80086 2.78294,7.18946 0.31702,9.25422 -1.34356,1.12499 -3.0229,1.04591 -4.70504,1.04695 z"
       id="path9114"
       sodipodi:nodetypes="cccccccccc" /><path
       style="opacity:1;fill:#cccccc;stroke:#cccccc;stroke-width:0.580278;stroke-linecap:round;stroke-linejoin:round;stroke-dasharray:none"
       d="M 116.6678,123.26973 V 139.194 h 10.27268 v -3.90803 h -5.6707 v -12.01624 h -4.60198"
       id="path12020"
       sodipodi:nodetypes="ccccccc" /><path
       style="fill:#383838;stroke:#ffffff;stroke-width:0;stroke-linecap:round;stroke-linejoin:round;stroke-dasharray:none"
       d="m 103.94529,124.2103 v 14.36719 c 2.6907,0 6.00211,0.53984 8.33185,-1.09283 3.86164,-2.70627 3.94951,-10.17183 -0.28649,-12.5941 -2.52455,-1.44369 -8.04536,-0.68026 -8.04536,-0.68026 m 13.21778,0 v 14.07985 h 8.90767 v -2.29876 h -6.0342 V 124.2103 h -2.87347 m -10.34436,12.06844 v -9.76969 c 1.21499,0 2.65622,-0.20132 3.72283,0.50063 2.46224,1.62043 2.36105,6.46912 0.26896,8.327 -1.13989,1.01227 -2.56466,0.94111 -3.99179,0.94206 z"
       id="path1582"
       sodipodi:nodetypes="ccccccccccccccccc" /></g></svg>
